<svg width="38" height="38" viewBox="0 0 38 38" fill="none" xmlns="http://www.w3.org/2000/svg">
<g clip-path="url(#clip0_8_34)">
<path d="M11.0833 0H6.33333C4.65363 0 3.04272 0.66726 1.85499 1.85499C0.66726 3.04272 0 4.65363 0 6.33333L0 11.0833C0 12.763 0.66726 14.3739 1.85499 15.5617C3.04272 16.7494 4.65363 17.4167 6.33333 17.4167H11.0833C12.763 17.4167 14.3739 16.7494 15.5617 15.5617C16.7494 14.3739 17.4167 12.763 17.4167 11.0833V6.33333C17.4167 4.65363 16.7494 3.04272 15.5617 1.85499C14.3739 0.66726 12.763 0 11.0833 0V0ZM14.25 11.0833C14.25 11.9232 13.9164 12.7286 13.3225 13.3225C12.7286 13.9164 11.9232 14.25 11.0833 14.25H6.33333C5.49348 14.25 4.68803 13.9164 4.09416 13.3225C3.5003 12.7286 3.16667 11.9232 3.16667 11.0833V6.33333C3.16667 5.49348 3.5003 4.68803 4.09416 4.09416C4.68803 3.5003 5.49348 3.16667 6.33333 3.16667H11.0833C11.9232 3.16667 12.7286 3.5003 13.3225 4.09416C13.9164 4.68803 14.25 5.49348 14.25 6.33333V11.0833Z" fill="#7C56A9"/>
<path d="M31.6664 0H26.9164C25.2367 0 23.6258 0.667261 22.4381 1.85499C21.2504 3.04272 20.5831 4.65363 20.5831 6.33334V11.0833C20.5831 12.763 21.2504 14.374 22.4381 15.5617C23.6258 16.7494 25.2367 17.4167 26.9164 17.4167H31.6664C33.3461 17.4167 34.957 16.7494 36.1448 15.5617C37.3325 14.374 37.9997 12.763 37.9997 11.0833V6.33334C37.9997 4.65363 37.3325 3.04272 36.1448 1.85499C34.957 0.667261 33.3461 0 31.6664 0V0ZM34.8331 11.0833C34.8331 11.9232 34.4995 12.7286 33.9056 13.3225C33.3117 13.9164 32.5063 14.25 31.6664 14.25H26.9164C26.0766 14.25 25.2711 13.9164 24.6773 13.3225C24.0834 12.7286 23.7498 11.9232 23.7498 11.0833V6.33334C23.7498 5.49348 24.0834 4.68803 24.6773 4.09416C25.2711 3.5003 26.0766 3.16667 26.9164 3.16667H31.6664C32.5063 3.16667 33.3117 3.5003 33.9056 4.09416C34.4995 4.68803 34.8331 5.49348 34.8331 6.33334V11.0833Z" fill="#7C56A9"/>
<path d="M11.0833 20.5833H6.33332C4.65361 20.5833 3.04271 21.2506 1.85498 22.4383C0.667245 23.6261 -1.52588e-05 25.237 -1.52588e-05 26.9167L-1.52588e-05 31.6667C-1.52588e-05 33.3464 0.667245 34.9573 1.85498 36.145C3.04271 37.3328 4.65361 38 6.33332 38H11.0833C12.763 38 14.3739 37.3328 15.5617 36.145C16.7494 34.9573 17.4167 33.3464 17.4167 31.6667V26.9167C17.4167 25.237 16.7494 23.6261 15.5617 22.4383C14.3739 21.2506 12.763 20.5833 11.0833 20.5833V20.5833ZM14.25 31.6667C14.25 32.5065 13.9164 33.312 13.3225 33.9058C12.7286 34.4997 11.9232 34.8333 11.0833 34.8333H6.33332C5.49347 34.8333 4.68801 34.4997 4.09415 33.9058C3.50028 33.312 3.16665 32.5065 3.16665 31.6667V26.9167C3.16665 26.0768 3.50028 25.2714 4.09415 24.6775C4.68801 24.0836 5.49347 23.75 6.33332 23.75H11.0833C11.9232 23.75 12.7286 24.0836 13.3225 24.6775C13.9164 25.2714 14.25 26.0768 14.25 26.9167V31.6667Z" fill="#7C56A9"/>
<path d="M31.6664 20.5833H26.9164C25.2367 20.5833 23.6258 21.2506 22.4381 22.4383C21.2504 23.6261 20.5831 25.237 20.5831 26.9167V31.6667C20.5831 33.3464 21.2504 34.9573 22.4381 36.145C23.6258 37.3328 25.2367 38 26.9164 38H31.6664C33.3461 38 34.957 37.3328 36.1448 36.145C37.3325 34.9573 37.9997 33.3464 37.9997 31.6667V26.9167C37.9997 25.237 37.3325 23.6261 36.1448 22.4383C34.957 21.2506 33.3461 20.5833 31.6664 20.5833V20.5833ZM34.8331 31.6667C34.8331 32.5065 34.4995 33.312 33.9056 33.9058C33.3117 34.4997 32.5063 34.8333 31.6664 34.8333H26.9164C26.0766 34.8333 25.2711 34.4997 24.6773 33.9058C24.0834 33.312 23.7498 32.5065 23.7498 31.6667V26.9167C23.7498 26.0768 24.0834 25.2714 24.6773 24.6775C25.2711 24.0836 26.0766 23.75 26.9164 23.75H31.6664C32.5063 23.75 33.3117 24.0836 33.9056 24.6775C34.4995 25.2714 34.8331 26.0768 34.8331 26.9167V31.6667Z" fill="#7C56A9"/>
</g>
<defs>
<clipPath id="clip0_8_34">
<rect width="38" height="38" fill="black"/>
</clipPath>
</defs>
</svg>
