<svg width="45" height="45" viewBox="0 0 45 45" fill="none" xmlns="http://www.w3.org/2000/svg">
<g clip-path="url(#clip0_8_51)">
<path d="M22.5 22.4999C24.725 22.4999 26.9001 21.8401 28.7502 20.6039C30.6002 19.3677 32.0422 17.6107 32.8936 15.5551C33.7451 13.4994 33.9679 11.2374 33.5338 9.05512C33.0998 6.87283 32.0283 4.86827 30.455 3.29493C28.8816 1.72159 26.8771 0.650132 24.6948 0.216049C22.5125 -0.218035 20.2505 0.0047524 18.1948 0.856238C16.1391 1.70772 14.3821 3.14966 13.146 4.99972C11.9098 6.84977 11.25 9.02484 11.25 11.2499C11.253 14.2327 12.4392 17.0924 14.5483 19.2015C16.6575 21.3107 19.5172 22.4969 22.5 22.4999ZM22.5 3.74988C23.9834 3.74988 25.4334 4.18975 26.6668 5.01386C27.9001 5.83797 28.8614 7.00931 29.4291 8.37976C29.9968 9.7502 30.1453 11.2582 29.8559 12.7131C29.5665 14.1679 28.8522 15.5043 27.8033 16.5532C26.7544 17.6021 25.418 18.3164 23.9632 18.6058C22.5083 18.8952 21.0003 18.7466 19.6299 18.179C18.2594 17.6113 17.0881 16.65 16.264 15.4167C15.4399 14.1833 15 12.7332 15 11.2499C15 9.26076 15.7902 7.3531 17.1967 5.94658C18.6032 4.54006 20.5109 3.74988 22.5 3.74988V3.74988Z" fill="#555555"/>
<path d="M22.5 26.2512C18.026 26.2561 13.7366 28.0356 10.573 31.1992C7.40944 34.3628 5.62995 38.6522 5.62498 43.1262C5.62498 43.6234 5.82253 44.1004 6.17416 44.452C6.52579 44.8036 7.0027 45.0012 7.49998 45.0012C7.99727 45.0012 8.47418 44.8036 8.82581 44.452C9.17744 44.1004 9.37498 43.6234 9.37498 43.1262C9.37498 39.6452 10.7578 36.3068 13.2192 33.8454C15.6806 31.384 19.019 30.0012 22.5 30.0012C25.981 30.0012 29.3193 31.384 31.7808 33.8454C34.2422 36.3068 35.625 39.6452 35.625 43.1262C35.625 43.6234 35.8225 44.1004 36.1742 44.452C36.5258 44.8036 37.0027 45.0012 37.5 45.0012C37.9973 45.0012 38.4742 44.8036 38.8258 44.452C39.1774 44.1004 39.375 43.6234 39.375 43.1262C39.37 38.6522 37.5905 34.3628 34.4269 31.1992C31.2633 28.0356 26.974 26.2561 22.5 26.2512V26.2512Z" fill="#555555"/>
</g>
<defs>
<clipPath id="clip0_8_51">
<rect width="45" height="45" fill="white"/>
</clipPath>
</defs>
</svg>
